<svg viewBox="0 0 400 500" fill="none" xmlns="http://www.w3.org/2000/svg">
  <!-- 人物轮廓 - 使用优雅的曲线 -->
  <path
    d="M200 80 
       C 160 80, 130 100, 120 130
       C 110 160, 110 180, 120 200
       L 140 240
       L 120 280
       C 100 320, 90 360, 100 400
       L 120 460
       L 160 480
       L 180 460
       L 200 440
       L 220 460
       L 240 480
       L 280 460
       L 300 400
       C 310 360, 300 320, 280 280
       L 260 240
       L 280 200
       C 290 180, 290 160, 280 130
       C 270 100, 240 80, 200 80
       Z"
    stroke="currentColor"
    stroke-width="2"
    fill="none"
    class="transition-all duration-300"
  />

  <!-- 大脑区域 - 控制意识 -->
  <path
    d="M200 100
       C 170 100, 150 110, 140 130
       C 130 150, 130 170, 140 190
       C 150 210, 170 220, 200 220
       C 230 220, 250 210, 260 190
       C 270 170, 270 150, 260 130
       C 250 110, 230 100, 200 100
       Z"
    stroke="currentColor"
    stroke-width="2"
    fill="none"
    class="brain-area"
  />

  <!-- 眼睛区域 - 心流体验 -->
  <path
    d="M170 150 C 160 150, 155 155, 155 160 C 155 165, 160 170, 170 170 C 180 170, 185 165, 185 160 C 185 155, 180 150, 170 150"
    stroke="currentColor"
    stroke-width="2"
    fill="none"
  />
  <path
    d="M230 150 C 220 150, 215 155, 215 160 C 215 165, 220 170, 230 170 C 240 170, 245 165, 245 160 C 245 155, 240 150, 230 150"
    stroke="currentColor"
    stroke-width="2"
    fill="none"
  />

  <!-- 心脏区域 - 快乐探索 -->
  <path
    d="M200 240
       C 180 220, 160 220, 150 240
       C 140 260, 150 280, 200 300
       C 250 280, 260 260, 250 240
       C 240 220, 220 220, 200 240
       Z"
    stroke="currentColor"
    stroke-width="2"
    fill="none"
    class="heart-area"
  />

  <!-- 手部区域 - 目标设定 -->
  <path
    d="M120 280
       C 110 300, 105 320, 110 340
       L 130 360"
    stroke="currentColor"
    stroke-width="2"
    fill="none"
  />
  <path
    d="M280 280
       C 290 300, 295 320, 290 340
       L 270 360"
    stroke="currentColor"
    stroke-width="2"
    fill="none"
  />

  <!-- 添加一些装饰性的能量线条 -->
  <g class="energy-lines" stroke="currentColor" stroke-width="1" opacity="0.5">
    <path d="M140 130 L 120 110" />
    <path d="M260 130 L 280 110" />
    <path d="M200 220 L 200 200" />
    <path d="M150 240 L 130 220" />
    <path d="M250 240 L 270 220" />
  </g>

  <style>
    svg {
      color: #666;
    }
    .brain-area, .heart-area {
      transition: all 0.3s ease;
    }
    .brain-area:hover, .heart-area:hover {
      stroke-width: 3;
      filter: drop-shadow(0 0 3px currentColor);
    }
    .energy-lines path {
      animation: pulse 2s infinite;
    }
    @keyframes pulse {
      0% { opacity: 0.3; }
      50% { opacity: 0.7; }
      100% { opacity: 0.3; }
    }
  </style>
</svg>